<svg xmlns="http://www.w3.org/2000/svg" version="1.1" xmlns:xlink="http://www.w3.org/1999/xlink" width="1000" height="1000"><g clip-path="url(#SvgjsClipPath1009)"><rect width="1000" height="1000" fill="#ffffff"></rect><g transform="matrix(0.68359375,0,0,0.68359375,150,150)"><svg xmlns="http://www.w3.org/2000/svg" version="1.1" xmlns:xlink="http://www.w3.org/1999/xlink" width="1024" height="1024"><svg xmlns="http://www.w3.org/2000/svg" xmlns:xlink="http://www.w3.org/1999/xlink" width="1024" height="1024" viewBox="0 0 1024 1024"><path fill="#2D2D2D" d="M200.456 30.4922C202.107 28.3592 202.202 27.9509 204.784 28.8147C223.526 38.1621 242.592 49.5037 261.095 59.5482C264.668 61.4875 284.089 71.5026 286.099 73.1508C291.508 74.6221 303.991 81.9399 309.37 84.929L354.88 110.623L559.951 226.155L834.491 378.051C866.751 395.292 898.731 413.052 930.418 431.325C940.011 436.748 964.315 449.459 971.881 456.17L967.352 459.325L766.697 567.238C739.617 581.58 711.858 594.987 684.951 609.757C682.769 610.955 669.021 618.036 667.933 619.175C671.085 618.665 705.554 599.719 710.734 597.032C772.291 565.234 833.652 533.058 894.813 500.506C913.351 490.647 931.597 479.966 950.379 470.514C953.276 469.056 964.186 463.103 966.712 462.503C963.965 469.16 960.703 475.955 957.386 482.454C946.161 504.456 936.491 527.3 925.175 549.229C924.044 551.42 917.777 554.3 915.698 555.737C891.056 568.926 866.016 581.781 841.135 594.504L756.658 638.233C714.289 659.675 672.145 681.559 630.232 703.881C604.306 717.999 577.497 733.58 551.716 748.123C476.469 790.691 401.576 833.882 327.046 877.693L191.514 957.887L153.306 980.731C143.67 986.487 132.1 993.429 121.946 998.231C115.859 995.301 109.459 991.731 103.575 988.336C90.1013 980.563 75.5797 973.288 62.5029 964.938C70.1397 961.114 170.663 900.697 170.986 899.778C168.756 900.43 152.504 910.224 149.627 911.904L94.9717 943.546C89.8852 946.508 62.7301 963.12 59.2554 962.225L58.2793 961.06L72.9929 501.654C74.3902 458.283 76.2399 414.478 77.1878 371.177C77.5675 352.78 78.1278 334.386 78.8687 315.999C79.112 308.224 79.0815 293.433 80.1012 286.206C86.5035 281.66 92.831 278.117 99.1814 273.855C113.233 264.426 127.813 255.726 141.902 246.463C143.177 245.117 143.059 245.163 144.763 244.463C146.454 244.453 146.623 244.814 148.011 245.822C157.363 250.569 166.351 255.925 175.593 260.87L244.468 297.426C312.322 333.389 379.943 369.791 447.325 406.63L543.53 458.467C547.866 460.786 553.295 462.878 557.356 465.327C571.175 473.661 587.028 481.203 600.454 489.95C600.631 494.21 600.375 518.683 600.859 519.875C601.227 523.937 602.255 531.855 601.242 535.47C597.962 538.294 580.466 546.451 574.999 549.374L485.483 597.334C431.912 626.08 378.714 655.518 325.903 685.638C294.361 703.713 262.57 721.348 230.538 738.54C223.706 742.215 200.599 755.084 194.622 756.657C187.356 753.347 179.407 748.599 172.43 744.558C158.724 736.649 145.21 728.412 131.898 719.855C130.596 760.299 128.701 800.723 126.215 841.112L125.658 842.558L125.259 841.045C123.802 843.336 124.293 856.26 125.801 858.803C129.871 859.207 156.897 843.569 160.057 840.77C174.703 833.892 190.872 821.91 205.2 814.121C208.876 812.123 214.13 808.677 217.742 807.282L218.854 806.022C213.965 806.936 192.401 822.175 187.741 821.265C192.06 816.76 216.192 802.996 222.457 799.371C251.196 782.823 280.107 766.575 309.186 750.631L472.753 661.682C520.498 635.452 566.631 608.752 615.03 583.019C667.963 554.999 720.673 526.562 773.157 497.709C792.763 486.737 817.085 474.29 835.523 462.308C831.971 459.317 822.573 454.46 818.18 451.993L786.449 434.146L635.346 350.728C536.046 294.183 436.352 238.333 336.27 183.182L246.123 133.545C231.848 125.793 212.985 114.948 198.513 108.393C190.445 112.943 145.418 143.731 139.272 143.113L138.384 141.749C140.431 120.012 138.497 96.8641 141.639 73.7239C159.442 59.9051 181.878 43.7961 200.456 30.4922ZM243.644 658.203C246.158 657.026 247.899 655.993 250.255 654.59C302.063 626.054 355.4 596.89 407.644 569.309L473.687 534.13C483.654 528.849 498.291 521.826 507.447 516.366C479.47 502.095 451.634 487.55 423.942 472.735L209.095 358.413C208.571 376.034 208.747 394.388 208.392 412.152L204.414 599.086C203.923 617.407 203.526 635.73 203.222 654.055C203.04 662.699 203.158 673.174 202.519 681.615C213.522 675.03 232.409 663.593 243.644 658.203Z"></path><path fill="#2D2D2D" d="M141.902 246.463C143.177 245.117 143.059 245.163 144.763 244.463C146.454 244.453 146.623 244.814 148.011 245.822C157.363 250.569 166.351 255.925 175.593 260.87L244.468 297.426C312.322 333.389 379.943 369.791 447.325 406.63L543.53 458.467C547.866 460.786 553.295 462.878 557.356 465.327C571.175 473.661 587.028 481.203 600.454 489.95C600.631 494.21 600.375 518.683 600.859 519.875C601.227 523.937 602.255 531.855 601.242 535.47C597.962 538.294 580.466 546.451 574.999 549.374L485.483 597.334C431.912 626.08 378.714 655.518 325.903 685.638C294.361 703.713 262.57 721.348 230.538 738.54C223.706 742.215 200.599 755.084 194.622 756.657C187.356 753.347 179.407 748.599 172.43 744.558C158.724 736.649 145.21 728.412 131.898 719.855C130.596 760.299 128.701 800.723 126.215 841.112C124.741 837.827 124.744 837.964 124.851 834.334C126.246 786.863 128.131 739.403 129.542 691.932L140.325 328.611C140.58 319.414 143.585 250.114 141.902 246.463ZM243.644 658.203C246.158 657.026 247.899 655.993 250.255 654.59C302.063 626.054 355.4 596.89 407.644 569.309L473.687 534.13C483.654 528.849 498.291 521.826 507.447 516.366C479.47 502.095 451.634 487.55 423.942 472.735L209.095 358.413C208.571 376.034 208.747 394.388 208.392 412.152L204.414 599.086C203.923 617.407 203.526 635.73 203.222 654.055C203.04 662.699 203.158 673.174 202.519 681.615C213.522 675.03 232.409 663.593 243.644 658.203Z"></path><path fill="#FDFBFE" d="M141.902 246.463C143.177 245.117 143.059 245.163 144.763 244.463C146.454 244.453 146.623 244.814 148.011 245.822C146.119 250.015 142.56 416.5 142.097 431.505L136.104 612.355C135.007 646.783 133.466 682.686 133.487 717.073C152.437 729.166 175.242 743.116 195.145 753.471C214.924 744.063 234.952 732.343 254.158 721.626L338.938 674.51C425.388 625.938 512.426 578.419 600.031 531.963C600.045 528.986 599.786 522.251 600.859 519.875C601.227 523.937 602.255 531.855 601.242 535.47C597.962 538.294 580.466 546.451 574.999 549.374L485.483 597.334C431.912 626.08 378.714 655.518 325.903 685.638C294.361 703.713 262.57 721.348 230.538 738.54C223.706 742.215 200.599 755.084 194.622 756.657C187.356 753.347 179.407 748.599 172.43 744.558C158.724 736.649 145.21 728.412 131.898 719.855C130.596 760.299 128.701 800.723 126.215 841.112C124.741 837.827 124.744 837.964 124.851 834.334C126.246 786.863 128.131 739.403 129.542 691.932L140.325 328.611C140.58 319.414 143.585 250.114 141.902 246.463Z"></path><path fill="#FDFBFE" d="M247.441 661.07C234.025 668.788 219.91 675.52 206.702 683.628C205.233 684.53 201.677 687.014 200.105 686.621C197.633 683.12 200.293 638.927 200.425 631.44L205.065 403.927C205.251 397.194 205.344 356.678 207.396 353.623C207.578 353.61 207.759 353.58 207.941 353.585C212.678 353.717 251.205 375.823 258.912 379.995C313.092 409.6 367.465 438.851 422.027 467.746L481.711 498.779C489.514 502.869 508.748 512.118 514.554 517.525C509.983 520.794 494.067 528.696 488.506 531.547C472.496 539.637 456.587 547.928 440.785 556.417L253.163 658.107C252.046 656.986 251.218 655.838 250.255 654.59C302.063 626.054 355.4 596.89 407.644 569.309L473.687 534.13C483.654 528.849 498.291 521.826 507.447 516.366C479.47 502.095 451.634 487.55 423.942 472.735L209.095 358.413C208.571 376.034 208.747 394.388 208.392 412.152L204.414 599.086C203.923 617.407 203.526 635.73 203.222 654.055C203.04 662.699 203.158 673.174 202.519 681.615C213.522 675.03 232.409 663.593 243.644 658.203C244.935 659.04 246.223 660.113 247.441 661.07Z"></path><path fill="#EEF6F7" d="M667.933 619.175C671.085 618.665 705.554 599.719 710.734 597.032C772.291 565.234 833.652 533.058 894.813 500.506C913.351 490.647 931.597 479.966 950.379 470.514C953.276 469.056 964.186 463.103 966.712 462.503C963.965 469.16 960.703 475.955 957.386 482.454C946.161 504.456 936.491 527.3 925.175 549.229C924.044 551.42 917.777 554.3 915.698 555.737C891.056 568.926 866.016 581.781 841.135 594.504L756.658 638.233C714.289 659.675 672.145 681.559 630.232 703.881C604.306 717.999 577.497 733.58 551.716 748.123C476.469 790.691 401.576 833.882 327.046 877.693L191.514 957.887L153.306 980.731C143.67 986.487 132.1 993.429 121.946 998.231C115.859 995.301 109.459 991.731 103.575 988.336C90.1013 980.563 75.5797 973.288 62.5029 964.938C70.1397 961.114 170.663 900.697 170.986 899.778C173.717 897.252 192.818 886.623 196.846 884.295L252.173 852.078C287.445 831.419 322.424 809.28 357.762 788.652C434.928 744.572 512.728 701.61 591.137 659.781L646.84 630.133C651.304 627.772 663.951 620.491 667.933 619.175Z"></path><path fill="#FDFBFE" d="M124.329 969.796C126.122 970.924 126.671 971.403 126.911 973.46C126.101 975.437 124.489 976.441 122.794 977.853L121.517 977.761C118.899 975.559 122.674 971.91 124.329 969.796Z"></path><path fill="#FDFBFE" d="M200.456 30.4922C202.107 28.3592 202.202 27.9509 204.784 28.8147C204.003 53.8663 202.898 78.9068 201.469 103.93C357.148 189.099 512.108 275.575 666.334 363.347C704.52 384.93 742.817 406.318 781.223 427.507C795.48 435.356 809.683 443.304 823.83 451.351C827.093 453.201 838.996 458.675 840.098 461.711C839.176 464.686 821.863 473.703 818.521 475.38C798.824 485.262 780.175 496.663 760.806 507.09C670.013 555.037 579.978 604.407 490.735 655.181L373.477 719.331L258.494 784.465C252.877 787.666 221.005 806.618 217.742 807.282L218.854 806.022C213.965 806.936 192.401 822.175 187.741 821.265C192.06 816.76 216.192 802.996 222.457 799.371C251.196 782.823 280.107 766.575 309.186 750.631L472.753 661.682C520.498 635.452 566.631 608.752 615.03 583.019C667.963 554.999 720.673 526.562 773.157 497.709C792.763 486.737 817.085 474.29 835.523 462.308C831.971 459.317 822.573 454.46 818.18 451.993L786.449 434.146L635.346 350.728C536.046 294.183 436.352 238.333 336.27 183.182L246.123 133.545C231.848 125.793 212.985 114.948 198.513 108.393C190.445 112.943 145.418 143.731 139.272 143.113L138.384 141.749C140.431 120.012 138.497 96.8641 141.639 73.7239C159.442 59.9051 181.878 43.7961 200.456 30.4922Z"></path><path fill="#2D2D2D" d="M200.456 30.4922C200.584 40.3172 199.5 52.5905 198.942 62.57L197.005 103.571L162.249 126.994C155.923 131.201 145.177 138.38 138.384 141.749C140.431 120.012 138.497 96.8641 141.639 73.7239C159.442 59.9051 181.878 43.7961 200.456 30.4922Z"></path><path fill="#FDFBFE" d="M286.099 73.1508C291.508 74.6221 303.991 81.9399 309.37 84.929L354.88 110.623L559.951 226.155L834.491 378.051C866.751 395.292 898.731 413.052 930.418 431.325C940.011 436.748 964.315 449.459 971.881 456.17L967.352 459.325L766.697 567.238C739.617 581.58 711.858 594.987 684.951 609.757C682.769 610.955 669.021 618.036 667.933 619.175C663.951 620.491 651.304 627.772 646.84 630.133L591.137 659.781C512.728 701.61 434.928 744.572 357.762 788.652C322.424 809.28 287.445 831.419 252.173 852.078L196.846 884.295C192.818 886.623 173.717 897.252 170.986 899.778C168.756 900.43 152.504 910.224 149.627 911.904L94.9717 943.546C89.8852 946.508 62.7301 963.12 59.2554 962.225L58.2793 961.06C72.2589 954.087 92.3551 941.379 106.158 933.201C136.749 915.254 167.213 897.092 197.549 878.716C287.794 823.918 378.983 770.69 471.074 719.055C529.708 686.929 588.735 655.527 648.143 624.857L817.507 534.973C857.085 514.658 896.436 493.901 935.55 472.705C946.183 466.869 957.201 461.417 967.609 455.241C952.912 445.55 929.951 434.006 913.855 425.047L807.257 365.613L433.684 156.523L327.987 96.8813L300.04 81.1454C297.199 79.5663 288.123 74.7773 286.099 73.1508Z"></path><path fill="#FDFBFE" fill-opacity="0.011764706" d="M667.933 619.175C669.021 618.036 682.769 610.955 684.951 609.757C711.858 594.987 739.617 581.58 766.697 567.238L967.352 459.325C967.473 461.34 966.771 461.331 966.712 462.503C964.186 463.103 953.276 469.056 950.379 470.514C931.597 479.966 913.351 490.647 894.813 500.506C833.652 533.058 772.291 565.234 710.734 597.032C705.554 599.719 671.085 618.665 667.933 619.175Z"></path><path fill="#FDFBFE" fill-opacity="0.015686275" d="M187.741 821.265C192.401 822.175 213.965 806.936 218.854 806.022L217.742 807.282C214.13 808.677 208.876 812.123 205.2 814.121C190.872 821.91 174.703 833.892 160.057 840.77L159.731 840.463C158.616 840.718 158.808 840.796 157.731 840.691C167.265 834.032 173.776 826.52 184.642 821.359C186.546 820.455 185.635 820.575 187.741 821.265Z"></path></svg></svg></g></g><defs><clipPath id="SvgjsClipPath1009"><rect width="1000" height="1000" x="0" y="0" rx="350" ry="350"></rect></clipPath></defs></svg>