<svg xmlns="http://www.w3.org/2000/svg" version="1.1" xmlns:xlink="http://www.w3.org/1999/xlink" width="1000" height="1000"><g clip-path="url(#SvgjsClipPath1291)"><rect width="1000" height="1000" fill="#ffffff"></rect><g transform="matrix(3.755868544600939,0,0,3.755868544600939,100,100)"><svg xmlns="http://www.w3.org/2000/svg" version="1.1" xmlns:xlink="http://www.w3.org/1999/xlink" width="213" height="213"><svg xmlns="http://www.w3.org/2000/svg" xmlns:xlink="http://www.w3.org/1999/xlink" width="213" height="213" viewBox="0 0 213 213"><defs><linearGradient id="gradient_0" gradientUnits="userSpaceOnUse" x1="497.92493" y1="86.060463" x2="481.9353" y2="955.28918"><stop offset="0" stop-color="black"></stop><stop offset="1" stop-color="#282728"></stop></linearGradient><clipPath id="SvgjsClipPath1291"><rect width="1000" height="1000" x="0" y="0" rx="100" ry="100"></rect></clipPath></defs><path fill="url(#gradient_0)" transform="scale(0.208008 0.208008)" d="M464.712 86.388C492.44 86.2773 522.465 85.7933 549.984 86.4001L550.594 87.1757C554.43 91.9681 562.443 107.561 566.091 113.996C577.847 134.267 589.314 154.705 600.487 175.304L697.015 347.261L885.5 682.478L932.346 765.681C939.296 777.97 950.374 796.197 956.3 808.563C968.709 830.586 981.906 852.454 993.296 874.989C994.125 876.628 985.52 891.866 984.201 894.297L961.863 934.939C960.385 937.575 955.438 945.099 954.713 946.531L954.285 947.725C953.951 947.962 953.616 948.2 953.281 948.437C946.298 948.637 929.254 948.67 923.32 948.704L812.669 948.963L219.832 948.97C201.804 948.971 54.8706 949.803 51.2937 948.349C49.6362 947.676 47.5626 944.742 46.6577 943.269C43.7227 938.49 41.25 933.305 38.5931 928.358L21.3304 896.293C18.4752 891.091 14.5531 884.487 11.6076 879.493C9.97188 876.72 14.816 867.491 16.5742 864.351C26.4739 846.669 36.8276 829.068 46.8624 811.415C70.7265 769.05 94.8749 726.845 119.306 684.805L298.816 373.575L393.405 209.436C410.589 178.85 428.158 148.481 446.109 118.338C452.639 107.317 457.791 97.1087 464.712 86.388ZM507.585 312.978L506.705 312.21C504.208 312.588 503.474 314.881 502.269 317.011C494.307 331.072 486.213 345.125 478.031 359.052L413.345 470.503L290.132 683.024L260.644 733.557C246.343 757.604 232.75 779.77 219.459 804.435L596.401 804.525L722.894 804.526L759.989 804.537C767.515 804.582 776.492 804.893 783.901 804.526L784.339 803.958C784.047 801.901 783.992 801.839 783.203 799.886C780.876 797.252 772.913 781.319 770.583 777.254L724.66 696.835L564.078 413.571C553.615 394.952 542.966 376.438 532.135 358.031C526.461 348.441 520.935 338.765 515.557 329.006C513.484 325.287 508.077 316.72 507.585 312.978Z"></path><path fill="#262626" transform="scale(0.208008 0.208008)" d="M954.713 946.531C954.344 946.042 952.529 944.334 952.472 944.231C947.606 935.517 915.487 881.574 915.622 876.133C919.62 869.973 922.176 864.389 925.797 858.277C935.004 842.736 943.486 827.063 951.318 810.781C952.112 809.132 953.261 810.533 954.278 807.208L954.731 808.151L956.3 808.563C968.709 830.586 981.906 852.454 993.296 874.989C994.125 876.628 985.52 891.866 984.201 894.297L961.863 934.939C960.385 937.575 955.438 945.099 954.713 946.531Z"></path><path fill="#525151" transform="scale(0.208008 0.208008)" d="M548.575 90.8106C549.904 92.2786 555.112 101.712 556.369 103.923L573.136 133.647C595.014 172.175 616.68 210.822 638.134 249.588L843.229 613.504C869.861 661.766 896.856 709.826 924.214 757.68C933.223 773.561 941.487 789.95 950.889 805.615L927.535 848.227C926.67 849.783 913.514 873.46 913.781 873.273L911.234 872.708C909.043 867.293 902.999 857.408 899.861 851.795C891.665 837 883.308 822.295 874.791 807.683L811.601 696.626L587.252 300.571L561.642 255.631C549.275 233.48 536.847 211.566 524.095 189.616C518.906 180.685 511.809 169.663 508.264 160.153C511.526 151.628 521.329 137.446 526.494 129.171C534.328 116.663 541.694 103.867 548.575 90.8106Z"></path><path fill="#E5E3E4" transform="scale(0.208008 0.208008)" d="M425.381 160.957C432.105 161.052 497.44 160.411 500.621 161.494C500.323 165.152 481.257 196.664 477.867 201.471C476.331 203.648 475.999 206.952 474.692 208.73L473.645 208.689C471.884 210.15 472.641 211.92 471.73 213.415C469.616 216.884 467.416 220.305 465.296 223.785C461.373 230.335 457.608 236.979 454.004 243.71C452.639 246.283 450.525 251.959 448.122 252.758C441.555 265.094 435.399 277.566 427.295 289.07C426.581 290.084 426.077 292.747 425.321 293.95C419.125 303.803 413.116 313.943 407.377 324.075L358.341 409.463L328.614 461.58C326.012 466.094 322.551 468.395 321.797 473.952C321.655 474.997 320.697 475.134 319.796 475.446C318.78 476.792 317.229 480.502 316.239 482.276C313.686 486.85 311.073 491.362 308.438 495.888L270.337 562.309L151.208 767.864L109.386 840.386L97.0861 861.755C95.461 864.547 92.9464 867.181 92.7043 870.274C92.5159 872.561 92.8638 872.66 91.771 874.315C84.7412 874.806 73.7549 874.471 66.488 874.474C51.993 874.437 37.498 874.489 23.0037 874.631C21.1464 874.635 18.7542 874.875 17.6179 873.747C17.294 870.741 18.8842 867.615 20.3565 865.018C29.2288 849.369 38.3478 833.833 47.329 818.251L93.3997 737.866L269.173 432.275L376.544 246.549L409.516 188.775C414.375 180.261 420.153 168.866 425.381 160.957Z"></path><path fill="#262626" transform="scale(0.208008 0.208008)" d="M548.099 238.84C556.425 250.956 567.328 271.696 574.852 285.086L618.982 363.35L757.362 608.215L867.01 800.994L892.17 845.405C895.305 850.826 906.143 868.988 908.056 874.197L907.838 874.61C900.426 875 893.071 874.239 885.513 874.237L863.392 874.25L838.377 874.258C835.067 874.26 828.405 874.085 825.362 874.371C825.076 873.01 820.525 865.363 819.611 863.708C809.939 846.201 799.239 829.237 789.815 811.575C793.013 808.329 788.987 803.789 786.736 800.871C785.767 799.615 784.661 799.855 783.203 799.886C780.876 797.252 772.913 781.319 770.583 777.254L724.66 696.835L564.078 413.571C553.615 394.952 542.966 376.438 532.135 358.031C526.461 348.441 520.935 338.765 515.557 329.006C513.484 325.287 508.077 316.72 507.585 312.978C507.928 312.684 508.272 312.389 508.616 312.094C508.997 308.686 509.233 305.064 510.998 302.029C520.842 285.097 530.735 268.188 540.446 251.179C542.7 247.23 545.338 242.42 548.099 238.84Z"></path><path fill="#858585" transform="scale(0.208008 0.208008)" d="M505.186 162.784C505.819 163.32 544.706 231.602 545.331 233.931C545.814 235.733 544.116 238.041 543.244 239.601C527.837 267.16 511.424 294.156 495.539 321.432L389.18 504.331L280.369 691.635C264.731 719.06 248.763 746.296 232.468 773.336C226.696 783.13 220.273 795.102 214.467 804.493L174.75 804.458C165.214 804.491 144.996 804.998 134.854 803.965C134.546 803.934 134.528 803.78 134.429 803.494C135.401 801.661 137.105 801.474 137.822 799.978C146.412 782.068 157.825 763.694 167.655 746.558L233.045 634.164L453.006 252.588L488.98 190.268C491.591 185.74 502.562 164.863 505.186 162.784Z"></path><path fill="#E5E3E4" transform="scale(0.208008 0.208008)" d="M131.86 808.517L616.268 808.513L741.559 808.5L774.008 808.472C778.105 808.463 782.845 808.436 786.992 808.491C788.192 808.506 789.04 810.404 789.815 811.575C799.239 829.237 809.939 846.201 819.611 863.708C820.525 865.363 825.076 873.01 825.362 874.371C807.071 875.081 785.212 874.479 766.512 874.476L653.25 874.476L259.867 874.48C245.25 874.482 98.8387 875.064 96.1572 873.824C95.4463 869.297 111.554 843.995 114.601 838.779C120.14 829.293 125.96 817.658 131.86 808.517Z"></path><path fill="#E5E3E4" transform="scale(0.208008 0.208008)" d="M465.528 89.9864C490.702 89.1684 520.272 89.9112 545.824 89.9748C539.497 99.8131 533.962 110.508 527.828 120.695C521.179 131.736 511.534 145.39 506.045 156.758C503.972 157.928 437.312 157.229 428.237 157.142C438.069 138.502 449.591 120.678 459.627 102.133C461.034 99.534 462.465 97.0323 463.642 94.3113L465.528 89.9864Z"></path></svg></svg></g></g></svg>